<?xml version="1.0" standalone="no"?>
<!DOCTYPE svg PUBLIC "-//W3C//DTD SVG 20010904//EN"
 "http://www.w3.org/TR/2001/REC-SVG-20010904/DTD/svg10.dtd">
<svg version="1.0" xmlns="http://www.w3.org/2000/svg"
 width="5000.000000pt" height="5000.000000pt" viewBox="0 0 5000.000000 5000.000000"
 preserveAspectRatio="xMidYMid meet">
<metadata>
Created by potrace 1.14, written by Peter Selinger 2001-2017
</metadata>
<g transform="translate(0.000000,5000.000000) scale(0.100000,-0.100000)"
fill="#000000" stroke="none">
<path d="M43237 49834 c-1 -1 -101 -5 -222 -8 -121 -4 -249 -9 -285 -10 -84
-5 -275 -17 -320 -21 -19 -1 -78 -6 -130 -10 -52 -4 -111 -8 -130 -10 -19 -2
-71 -7 -115 -10 -44 -4 -87 -8 -95 -10 -8 -2 -51 -6 -95 -10 -44 -4 -87 -9
-96 -10 -9 -2 -40 -6 -70 -10 -55 -6 -277 -34 -314 -40 -11 -1 -40 -5 -65 -9
-25 -3 -72 -11 -105 -16 -33 -5 -118 -19 -190 -30 -160 -26 -164 -27 -195 -34
-14 -3 -38 -7 -55 -10 -68 -10 -211 -37 -224 -42 -8 -2 -30 -7 -50 -10 -20 -3
-42 -7 -50 -10 -8 -2 -30 -7 -50 -10 -20 -3 -73 -14 -118 -25 -44 -10 -96 -21
-114 -24 -18 -3 -35 -7 -38 -9 -3 -2 -22 -7 -41 -10 -39 -6 -576 -140 -624
-156 -17 -5 -74 -21 -126 -36 -255 -71 -661 -199 -910 -287 -260 -93 -305
-109 -487 -181 -199 -78 -521 -211 -613 -253 -30 -14 -124 -56 -208 -94 -85
-39 -161 -74 -170 -79 -10 -5 -123 -61 -252 -124 -277 -136 -465 -235 -725
-381 -297 -166 -655 -386 -955 -585 -467 -310 -831 -579 -1280 -945 -74 -60
-140 -114 -146 -120 -6 -6 -31 -27 -54 -46 -23 -18 -50 -41 -59 -49 -9 -9 -47
-43 -85 -75 -38 -33 -79 -69 -91 -80 -12 -11 -52 -48 -91 -81 -254 -226 -711
-672 -949 -928 -55 -60 -111 -120 -125 -135 -14 -14 -54 -60 -90 -100 -36 -41
-70 -79 -77 -86 -17 -18 -148 -168 -203 -234 -25 -30 -50 -59 -55 -65 -12 -13
-107 -127 -152 -182 -17 -21 -57 -70 -89 -109 -144 -177 -499 -652 -616 -825
-10 -14 -32 -45 -49 -70 -68 -96 -270 -401 -343 -520 -43 -69 -88 -141 -101
-160 -13 -19 -34 -53 -47 -76 -25 -44 -164 -280 -178 -304 -11 -18 -67 -117
-105 -185 -16 -27 -48 -86 -73 -130 -25 -44 -51 -93 -59 -110 -7 -16 -25 -50
-39 -75 -52 -92 -354 -701 -354 -714 0 -2 -22 -50 -49 -107 -27 -57 -74 -165
-105 -239 -32 -74 -66 -153 -75 -175 -73 -162 -261 -655 -363 -955 -99 -291
-244 -762 -283 -920 -2 -8 -18 -69 -35 -135 -18 -66 -34 -127 -36 -135 -2 -8
-16 -69 -33 -135 -16 -66 -32 -135 -36 -153 -8 -38 -22 -37 -45 1 -15 26 -97
145 -304 442 -12 17 -23 32 -26 35 -3 3 -50 66 -105 140 -107 147 -371 489
-389 505 -6 6 -24 28 -40 50 -17 22 -33 42 -36 45 -3 3 -51 60 -107 126 -104
125 -122 147 -207 243 -27 31 -63 72 -79 91 -296 340 -906 957 -1196 1209 -45
39 -166 147 -181 161 -9 8 -45 40 -80 70 -36 30 -67 57 -70 60 -5 5 -136 117
-175 149 -209 172 -516 412 -665 521 -41 30 -77 57 -80 60 -3 3 -54 41 -115
83 -60 43 -117 83 -126 90 -8 7 -23 17 -31 22 -9 6 -38 25 -64 44 -233 164
-644 427 -939 601 -365 216 -534 307 -945 513 -299 150 -373 185 -615 294 -66
29 -129 58 -140 63 -11 5 -49 21 -85 36 -36 14 -83 34 -105 44 -57 25 -180 76
-245 101 -30 11 -82 31 -115 44 -260 100 -778 285 -840 300 -5 1 -17 5 -25 8
-33 13 -412 128 -495 150 -11 3 -63 17 -115 32 -52 15 -102 28 -110 30 -8 3
-67 18 -130 35 -63 16 -128 32 -144 35 -16 3 -32 8 -36 10 -4 3 -201 50 -290
70 -170 37 -383 82 -485 101 -71 13 -141 27 -155 29 -14 3 -65 12 -115 20 -49
8 -115 19 -145 25 -88 15 -206 33 -299 46 -19 2 -46 6 -60 8 -71 11 -137 20
-316 41 -71 8 -152 18 -180 21 -27 4 -68 8 -90 9 -22 2 -62 6 -90 9 -66 7
-143 14 -240 21 -44 3 -98 8 -120 10 -22 2 -94 7 -160 10 -66 4 -149 8 -185
10 -215 14 -551 18 -1410 19 l-965 1 1 -955 c0 -843 6 -1232 19 -1435 2 -33 7
-103 10 -155 7 -114 14 -216 20 -290 16 -188 30 -336 40 -415 2 -16 6 -61 10
-100 4 -38 8 -81 11 -95 2 -14 6 -45 9 -70 6 -46 11 -84 20 -142 23 -160 37
-259 41 -293 3 -22 8 -51 10 -65 3 -14 16 -90 29 -170 14 -80 29 -165 35 -190
5 -25 12 -61 15 -80 21 -144 170 -808 224 -1000 10 -36 35 -128 56 -205 21
-77 46 -167 56 -200 94 -315 84 -283 154 -495 59 -181 104 -311 160 -465 20
-55 40 -111 44 -125 5 -14 17 -47 29 -75 11 -27 41 -104 67 -170 62 -159 59
-152 89 -218 14 -32 26 -63 26 -70 0 -7 4 -17 8 -22 5 -6 21 -41 37 -80 31
-77 64 -153 100 -230 13 -27 35 -77 50 -110 101 -231 379 -786 507 -1015 17
-30 42 -75 56 -100 14 -25 43 -76 65 -115 22 -38 50 -88 62 -110 39 -71 286
-477 363 -595 77 -119 241 -367 255 -385 7 -9 131 -187 159 -229 62 -91 498
-668 518 -686 3 -3 33 -39 65 -80 33 -41 62 -77 65 -80 3 -3 63 -75 135 -160
71 -85 132 -157 135 -160 3 -3 35 -39 70 -80 56 -64 112 -127 170 -190 8 -9
58 -63 110 -120 119 -132 704 -717 829 -830 52 -47 101 -92 110 -101 9 -8 57
-51 106 -94 89 -79 147 -130 169 -150 6 -6 81 -69 166 -140 85 -72 157 -132
160 -135 20 -21 337 -268 503 -393 318 -240 605 -441 902 -631 50 -32 101 -66
115 -76 30 -20 187 -119 215 -134 11 -6 64 -38 118 -71 54 -33 117 -71 140
-83 23 -13 67 -39 97 -57 241 -144 929 -502 1230 -639 312 -142 997 -428 1054
-441 6 -1 18 -5 26 -8 8 -4 103 -38 210 -77 425 -152 995 -326 1360 -416 8 -2
42 -10 75 -18 168 -43 516 -123 575 -132 19 -3 38 -8 41 -10 4 -2 24 -6 45 -9
22 -4 46 -8 54 -10 8 -3 33 -7 55 -11 22 -3 43 -8 46 -10 3 -1 34 -8 70 -13
35 -6 75 -13 89 -16 24 -5 105 -19 165 -29 17 -3 41 -8 55 -10 14 -3 43 -8 65
-11 35 -5 116 -17 195 -30 14 -2 45 -6 70 -10 25 -3 56 -8 70 -10 14 -3 48 -8
75 -11 28 -3 59 -7 70 -9 11 -1 65 -8 120 -14 55 -7 112 -14 126 -17 14 -2 52
-6 85 -9 32 -3 75 -8 94 -10 34 -4 133 -14 208 -20 20 -2 40 -4 43 -4 4 -1 6
-631 6 -1401 l0 -1400 -21 -1 c-11 -1 -41 -2 -66 -3 -70 -4 -312 -18 -345 -21
-16 -1 -81 -6 -143 -9 -62 -4 -121 -9 -131 -11 -10 -2 -59 -7 -107 -10 -49 -4
-102 -9 -119 -10 -16 -2 -64 -6 -105 -9 -41 -4 -86 -9 -100 -11 -14 -2 -45 -6
-70 -9 -25 -3 -65 -7 -90 -10 -25 -4 -65 -8 -90 -11 -68 -6 -200 -23 -240 -30
-14 -2 -49 -7 -79 -10 -30 -4 -61 -8 -70 -10 -9 -1 -41 -6 -71 -10 -30 -4 -64
-9 -74 -11 -11 -2 -56 -8 -100 -14 -131 -18 -149 -21 -186 -30 -19 -5 -59 -11
-89 -14 -29 -4 -57 -8 -60 -11 -4 -2 -25 -6 -47 -9 -21 -2 -50 -7 -64 -10 -14
-3 -38 -7 -55 -10 -16 -2 -55 -10 -85 -16 -30 -6 -66 -13 -80 -15 -42 -6 -78
-13 -255 -50 -93 -20 -190 -40 -215 -45 -675 -137 -1639 -411 -2409 -685 -285
-101 -667 -246 -756 -285 -11 -5 -49 -21 -85 -35 -36 -14 -74 -30 -85 -35 -11
-4 -108 -45 -215 -91 -107 -45 -217 -92 -245 -105 -316 -144 -420 -192 -540
-250 -77 -37 -142 -68 -145 -69 -5 -1 -319 -158 -371 -185 -13 -7 -31 -17 -39
-21 -8 -4 -50 -26 -94 -49 -43 -22 -160 -85 -260 -139 -156 -85 -247 -136
-576 -326 -416 -240 -1064 -667 -1494 -984 l-92 -68 -54 8 c-50 7 -93 13 -156
24 -12 2 -48 7 -80 10 -33 4 -68 9 -79 11 -18 4 -135 18 -245 29 -25 3 -76 7
-115 11 -38 3 -86 7 -105 9 -130 13 -358 20 -705 20 -349 0 -497 -4 -685 -20
-96 -8 -186 -17 -210 -20 -14 -2 -52 -6 -85 -10 -33 -3 -71 -7 -85 -9 -14 -2
-54 -7 -90 -11 -36 -4 -74 -9 -85 -11 -10 -2 -37 -6 -60 -9 -22 -3 -65 -10
-95 -15 -30 -5 -73 -12 -95 -15 -22 -3 -87 -15 -144 -26 -57 -12 -115 -23
-128 -25 -114 -21 -431 -96 -573 -135 -114 -32 -308 -89 -375 -111 -33 -11
-67 -21 -75 -23 -8 -2 -80 -27 -160 -55 -80 -29 -156 -55 -170 -60 -43 -14
-213 -80 -257 -101 -24 -10 -49 -19 -56 -19 -7 0 -17 -4 -22 -8 -6 -5 -30 -17
-55 -26 -25 -10 -58 -24 -75 -31 -16 -7 -120 -50 -230 -95 -208 -85 -242 -100
-299 -125 -19 -8 -37 -15 -41 -15 -3 0 -30 -11 -58 -24 -29 -13 -142 -60 -252
-105 -110 -45 -209 -86 -220 -91 -11 -5 -58 -25 -105 -44 -47 -19 -182 -75
-300 -124 -118 -49 -294 -122 -390 -161 -96 -40 -184 -76 -195 -81 -89 -41
-579 -240 -582 -236 -3 3 -5 1150 -5 2550 l0 2546 -22 1 c-27 1 -2865 1 -2888
0 -17 -1 -18 -59 -20 -1028 l-3 -1028 -3392 0 -3393 0 0 -9792 0 -9793 28 0
c15 -1 1542 -1 3395 -1 l3367 -1 0 -543 c0 -425 3 -544 13 -547 10 -3 2889 -2
2908 1 4 1 7 999 7 2219 1 1219 1 2234 1 2254 1 41 -1 41 86 4 16 -7 50 -21
75 -31 25 -10 63 -26 85 -36 22 -9 128 -51 235 -94 107 -42 209 -83 225 -90
17 -7 201 -82 410 -165 209 -83 394 -158 410 -165 17 -8 84 -35 150 -61 66
-25 139 -55 162 -65 23 -11 45 -19 48 -19 3 0 25 -8 48 -18 23 -11 130 -54
237 -97 107 -42 209 -83 225 -90 41 -18 1046 -422 1120 -451 33 -12 218 -86
410 -164 878 -355 1295 -523 1350 -545 76 -29 980 -393 1020 -410 37 -16 423
-171 485 -195 63 -24 448 -179 485 -195 17 -7 206 -83 420 -169 215 -86 399
-161 410 -166 19 -8 505 -204 765 -307 63 -25 129 -51 145 -58 17 -7 167 -68
335 -135 168 -67 324 -131 347 -141 23 -11 44 -19 47 -19 6 0 369 -145 456
-183 19 -8 206 -83 415 -167 209 -83 394 -158 410 -165 17 -7 134 -54 260
-104 204 -82 279 -112 350 -142 11 -5 56 -22 100 -39 44 -17 94 -37 110 -44
17 -8 73 -31 125 -51 52 -20 109 -43 125 -50 17 -7 190 -77 385 -155 195 -78
369 -148 385 -155 17 -7 66 -27 110 -44 341 -136 1106 -445 1129 -457 16 -8
33 -14 39 -14 5 0 23 -7 40 -15 61 -28 445 -163 602 -212 137 -42 209 -64 226
-68 9 -2 47 -12 85 -24 67 -19 454 -115 504 -124 14 -3 59 -12 100 -20 41 -9
89 -18 105 -21 17 -3 66 -12 110 -20 83 -16 245 -42 305 -50 19 -3 57 -8 83
-11 27 -4 58 -8 69 -10 11 -2 47 -7 81 -10 34 -3 78 -8 97 -10 309 -35 578
-49 965 -49 247 0 542 8 645 19 19 2 73 6 120 10 47 3 99 8 115 10 29 4 64 8
185 20 30 3 84 10 120 15 36 5 83 12 105 15 22 3 51 7 65 10 14 2 43 7 65 10
22 3 92 14 155 26 146 25 140 24 235 44 44 9 91 19 105 21 46 9 393 94 505
125 310 85 825 260 1002 340 23 10 47 19 53 19 5 0 18 4 28 10 9 5 35 16 57
26 22 9 49 20 60 25 11 4 196 81 410 169 215 89 403 168 419 176 16 8 33 14
38 14 4 0 27 9 51 19 23 11 83 36 132 56 50 21 104 43 120 51 17 7 55 23 85
34 30 12 69 27 85 35 73 31 166 70 385 160 129 53 244 100 255 105 17 9 354
148 590 245 44 18 213 88 375 155 162 68 331 138 375 156 44 17 134 54 200 82
66 27 199 82 295 122 96 39 189 78 205 85 17 8 147 62 290 120 143 59 279 115
302 126 24 10 45 19 48 19 4 0 27 9 53 21 77 34 95 42 367 154 143 58 269 110
280 115 11 5 130 55 265 110 135 56 261 108 280 116 19 9 44 19 55 24 29 12
400 165 540 222 66 27 134 55 150 63 17 7 53 22 80 33 28 11 169 69 315 130
146 60 501 208 790 327 289 119 554 229 590 244 36 15 101 43 145 61 44 18 94
38 110 45 17 8 55 23 85 35 30 12 69 28 85 35 17 8 86 37 155 65 69 28 134 55
145 60 11 5 180 75 375 155 195 80 364 150 375 155 11 5 169 70 350 145 182
75 346 143 365 151 57 25 68 30 225 94 83 33 159 65 170 70 25 11 72 31 205
85 151 61 591 244 615 255 11 5 180 75 375 156 195 81 447 185 560 231 113 47
252 104 310 128 58 24 204 85 325 135 121 51 258 107 305 126 47 19 95 39 108
44 12 6 32 14 45 19 12 5 49 21 82 35 33 14 155 64 270 112 116 47 224 92 240
99 17 7 71 29 120 50 211 86 1013 418 1040 430 17 8 163 68 325 135 241 99
622 275 690 319 8 5 85 51 170 102 615 367 1152 883 1548 1487 42 64 82 126
88 137 6 11 44 76 83 145 213 372 378 782 487 1210 44 173 98 443 109 550 3
30 10 84 15 120 31 228 34 793 5 1025 -2 17 -6 55 -10 85 -3 30 -8 62 -10 70
-2 8 -6 38 -9 65 -3 28 -10 75 -16 105 -6 30 -13 71 -16 90 -3 19 -9 51 -14
70 -5 19 -11 49 -14 65 -5 26 -50 204 -76 300 -90 328 -276 766 -464 1095 -74
128 -225 365 -270 421 -12 15 -30 39 -41 55 -160 227 -490 584 -715 774 -36
30 -67 57 -70 60 -28 28 -287 227 -365 279 -59 40 -296 191 -299 191 -1 0 -54
29 -117 65 -63 36 -118 65 -122 65 -5 0 -21 9 -35 19 -15 10 -29 19 -32 19 -3
0 -45 19 -95 42 -290 135 -631 256 -925 329 -91 22 -178 43 -195 45 -16 3 -40
8 -51 10 -12 2 -37 7 -55 10 -19 3 -45 8 -59 11 -14 3 -41 7 -60 10 -19 2 -69
9 -110 15 -75 11 -105 14 -212 24 -149 14 -240 18 -443 18 -204 0 -277 -3
-431 -17 -66 -6 -273 -32 -319 -40 -161 -28 -219 -40 -340 -66 -250 -56 -628
-178 -830 -268 -22 -10 -62 -26 -89 -36 l-49 -19 -30 35 c-16 19 -53 59 -81
89 -28 30 -87 96 -131 145 -44 50 -83 92 -86 95 -3 3 -46 50 -95 105 -49 55
-93 105 -99 111 -48 52 -167 183 -182 200 -35 41 -168 188 -198 219 -16 18
-57 63 -90 100 -33 38 -69 78 -80 90 -11 11 -44 47 -74 80 -53 60 -126 139
-367 400 -71 77 -144 156 -161 175 -18 19 -56 60 -85 91 -29 31 -114 121 -188
199 -74 79 -187 198 -251 264 -64 67 -144 150 -178 186 -317 334 -1029 1030
-1440 1410 -63 58 -119 110 -125 115 -6 6 -74 66 -151 135 -77 69 -142 127
-145 130 -6 7 -157 139 -240 210 -36 30 -87 75 -115 99 -115 100 -416 349
-580 481 -204 163 -230 183 -265 210 -19 14 -45 34 -59 46 -14 11 -105 80
-201 152 -96 73 -179 136 -185 140 -237 185 -906 638 -1270 861 -82 50 -157
96 -165 101 -68 41 -151 91 -182 108 -20 12 -55 32 -77 46 -22 15 -43 26 -46
26 -3 0 -22 11 -43 23 -20 13 -73 43 -117 67 -44 24 -98 54 -120 66 -126 70
-498 264 -540 283 -11 5 -74 35 -140 66 -223 107 -623 285 -639 285 -7 0 -114
47 -138 60 -10 6 -23 10 -30 10 -7 0 -26 7 -42 15 -15 8 -47 21 -70 29 -22 8
-99 37 -171 64 -127 48 -426 151 -615 211 -193 61 -732 204 -845 224 -17 3
-39 8 -50 11 -29 7 -157 34 -185 39 -14 3 -41 8 -60 12 -19 3 -42 7 -50 9 -8
2 -31 6 -50 10 -19 4 -46 9 -60 10 -14 2 -65 11 -115 19 -49 9 -106 18 -125
21 -29 4 -99 14 -145 21 -5 1 -17 3 -25 3 -13 2 -15 449 -13 3963 1 2178 4
3964 7 3967 4 3 19 6 34 7 33 2 165 15 212 20 19 2 60 7 90 10 30 3 71 8 90
10 19 2 60 7 90 10 30 3 66 8 80 10 14 2 49 7 79 10 30 4 62 8 71 10 9 2 41 6
71 10 30 3 65 8 79 10 14 2 84 13 155 25 184 28 325 52 385 65 13 2 42 7 65
10 22 4 56 10 75 15 19 5 51 12 70 15 107 17 552 117 804 181 303 76 507 133
736 204 74 23 142 43 150 45 37 10 473 159 635 218 273 99 664 257 912 368 27
12 62 27 78 34 43 19 175 79 280 128 107 50 533 264 660 332 203 108 328 178
650 365 322 187 973 618 1237 819 25 20 70 53 100 73 29 21 66 49 82 63 16 14
32 25 35 25 3 0 17 10 31 23 14 12 43 35 65 52 39 29 360 284 406 323 149 126
364 309 393 337 15 13 207 187 222 200 184 162 808 787 944 944 11 14 52 59
90 101 38 42 77 85 87 97 94 107 130 148 185 213 75 87 291 350 328 399 14 18
30 39 37 46 7 7 36 44 65 81 29 38 56 74 60 79 4 6 27 35 51 65 56 72 301 407
358 490 24 36 47 67 50 70 12 11 321 483 416 635 96 154 267 442 330 555 17
30 41 73 54 95 122 216 420 801 517 1015 129 284 256 579 326 760 8 19 23 58
34 85 124 306 409 1143 447 1312 2 10 20 74 40 143 35 119 120 447 131 500 3
14 9 39 14 55 5 17 11 41 14 55 3 14 16 75 30 135 14 61 27 121 30 135 3 14 7
34 10 45 8 35 55 269 61 300 5 28 8 47 20 105 2 14 7 39 10 55 3 17 7 40 9 51
2 12 7 37 10 55 3 19 19 118 36 220 16 102 32 203 35 225 11 91 24 187 30 223
2 14 6 51 10 81 3 30 10 89 15 130 20 161 27 231 55 580 18 222 32 477 40 780
4 119 8 1772 6 1950 l-1 35 -941 0 c-517 0 -941 -1 -942 -1z"/>
</g>
</svg>
