<svg width="276" height="45" viewBox="0 0 276 45" fill="none" xmlns="http://www.w3.org/2000/svg">
<path d="M56 11.7897V36.1991H61.1075V11.7897H56ZM59.1074 16.009H64.072C65.4292 16.009 66.5007 16.3112 67.2865 16.9156C68.0722 17.4968 68.4651 18.3802 68.4651 19.5658C68.4651 20.7282 68.0722 21.6115 67.2865 22.216C66.5007 22.8204 65.4292 23.1226 64.072 23.1226H59.1074V27.342H64.072C66.0483 27.342 67.727 27.0281 69.108 26.4004C70.5129 25.7728 71.5844 24.8778 72.3225 23.7154C73.0607 22.5298 73.4297 21.1466 73.4297 19.5658C73.4297 17.9618 73.0607 16.5786 72.3225 15.4162C71.5844 14.2538 70.5129 13.3588 69.108 12.7312C67.727 12.1035 66.0483 11.7897 64.072 11.7897H59.1074V16.009Z" fill="#AAB3AD"/>
<path d="M76.9526 9V36.1991H81.5958V9H76.9526Z" fill="#AAB3AD"/>
<path d="M89.4467 31.2126C89.4467 30.7477 89.5539 30.3641 89.7682 30.0619C89.9825 29.7364 90.3158 29.4923 90.7682 29.3296C91.2207 29.1436 91.804 29.0506 92.5184 29.0506C93.3994 29.0506 94.2328 29.1669 95.0185 29.3993C95.8281 29.6318 96.5543 29.9805 97.1973 30.4454V28.3532C96.9591 28.0742 96.5662 27.7836 96.0186 27.4814C95.4709 27.1792 94.7923 26.9235 93.9827 26.7143C93.197 26.5051 92.2803 26.4004 91.2326 26.4004C89.1848 26.4004 87.6014 26.8538 86.4822 27.7604C85.3631 28.667 84.8036 29.8991 84.8036 31.4567C84.8036 32.5493 85.0655 33.4792 85.5893 34.2463C86.137 34.9902 86.8513 35.5598 87.7323 35.955C88.6133 36.3502 89.5658 36.5478 90.5897 36.5478C91.5897 36.5478 92.5422 36.3735 93.447 36.0247C94.3756 35.676 95.1257 35.153 95.6971 34.4556C96.2924 33.7582 96.5901 32.898 96.5901 31.8751L96.0186 29.7829C96.0186 30.5501 95.84 31.2126 95.4828 31.7705C95.1257 32.3052 94.6614 32.7237 94.0899 33.0259C93.5184 33.3048 92.8755 33.4443 92.1612 33.4443C91.6612 33.4443 91.1968 33.363 90.7682 33.2002C90.3635 33.0142 90.042 32.7585 89.8039 32.4331C89.5658 32.0844 89.4467 31.6775 89.4467 31.2126ZM87.6609 24.6918C87.899 24.5291 88.2681 24.3315 88.7681 24.099C89.2681 23.8665 89.8634 23.6689 90.5539 23.5062C91.2445 23.3435 91.9707 23.2621 92.7327 23.2621C93.2327 23.2621 93.6851 23.3086 94.0899 23.4016C94.4947 23.4946 94.84 23.6457 95.1257 23.8549C95.4352 24.0641 95.6614 24.3315 95.8043 24.6569C95.9472 24.9591 96.0186 25.3311 96.0186 25.7728V36.1991H100.483V24.8313C100.483 23.7387 100.174 22.8204 99.5546 22.0765C98.9355 21.3093 98.0783 20.7282 96.9829 20.333C95.8876 19.9378 94.6376 19.7402 93.2327 19.7402C91.7088 19.7402 90.3277 19.9494 89.0896 20.3678C87.8514 20.763 86.8037 21.1815 85.9465 21.6232L87.6609 24.6918Z" fill="#AAB3AD"/>
<path d="M115.394 26.4353V36.1991H120.18V25.9471C120.18 24.0176 119.704 22.5182 118.752 21.4488C117.799 20.3562 116.347 19.8099 114.394 19.8099C113.228 19.8099 112.227 20.054 111.394 20.5422C110.584 21.0071 109.93 21.6929 109.43 22.5995V20.1586H104.786V36.1991H109.43V26.4353C109.43 25.7612 109.561 25.18 109.823 24.6918C110.084 24.2036 110.465 23.8316 110.965 23.5759C111.466 23.297 112.037 23.1575 112.68 23.1575C113.632 23.1575 114.323 23.4364 114.751 23.9944C115.18 24.5523 115.394 25.366 115.394 26.4353Z" fill="#AAB3AD"/>
<path d="M122.63 20.1586V23.9595H132.774V20.1586H122.63ZM125.452 14.5793V36.1991H129.917V14.5793H125.452Z" fill="#AAB3AD"/>
<path d="M141.165 22.4951L148.416 33.9327L155.666 22.4951L157.274 36.1993H162.595L158.881 10.5693L148.416 26.3309L137.951 10.5693L134.236 36.1993H139.558L141.165 22.4951Z" fill="#1A5331"/>
<path d="M169.46 31.2128C169.46 30.7478 169.568 30.3642 169.782 30.062C169.996 29.7366 170.33 29.4925 170.782 29.3297C171.234 29.1438 171.818 29.0508 172.532 29.0508C173.413 29.0508 174.247 29.167 175.032 29.3995C175.842 29.632 176.568 29.9807 177.211 30.4456V28.3534C176.973 28.0744 176.58 27.7838 176.032 27.4816C175.485 27.1794 174.806 26.9237 173.996 26.7144C173.211 26.5052 172.294 26.4006 171.246 26.4006C169.199 26.4006 167.615 26.8539 166.496 27.7606C165.377 28.6672 164.817 29.8993 164.817 31.4568C164.817 32.5495 165.079 33.4793 165.603 34.2465C166.151 34.9904 166.865 35.56 167.746 35.9552C168.627 36.3504 169.58 36.548 170.603 36.548C171.603 36.548 172.556 36.3736 173.461 36.0249C174.389 35.6762 175.139 35.1531 175.711 34.4557C176.306 33.7583 176.604 32.8982 176.604 31.8753L176.032 29.7831C176.032 30.5502 175.854 31.2128 175.497 31.7707C175.139 32.3054 174.675 32.7238 174.104 33.026C173.532 33.305 172.889 33.4445 172.175 33.4445C171.675 33.4445 171.211 33.3631 170.782 33.2004C170.377 33.0144 170.056 32.7587 169.818 32.4332C169.58 32.0845 169.46 31.6777 169.46 31.2128ZM167.675 24.6919C167.913 24.5292 168.282 24.3316 168.782 24.0991C169.282 23.8667 169.877 23.6691 170.568 23.5063C171.258 23.3436 171.984 23.2622 172.746 23.2622C173.246 23.2622 173.699 23.3087 174.104 23.4017C174.508 23.4947 174.854 23.6458 175.139 23.855C175.449 24.0643 175.675 24.3316 175.818 24.6571C175.961 24.9593 176.032 25.3312 176.032 25.7729V36.1993H180.497V24.8314C180.497 23.7388 180.187 22.8206 179.568 22.0766C178.949 21.3095 178.092 20.7283 176.997 20.3331C175.901 19.9379 174.651 19.7403 173.246 19.7403C171.723 19.7403 170.341 19.9495 169.103 20.368C167.865 20.7632 166.817 21.1816 165.96 21.6233L167.675 24.6919Z" fill="#1A5331"/>
<path d="M195.408 26.4355V36.1993H200.194V25.9473C200.194 24.0178 199.718 22.5183 198.765 21.449C197.813 20.3564 196.361 19.8101 194.408 19.8101C193.241 19.8101 192.241 20.0541 191.408 20.5423C190.598 21.0073 189.943 21.6931 189.443 22.5997V20.1588H184.8V36.1993H189.443V26.4355C189.443 25.7613 189.574 25.1801 189.836 24.6919C190.098 24.2038 190.479 23.8318 190.979 23.5761C191.479 23.2971 192.051 23.1576 192.694 23.1576C193.646 23.1576 194.337 23.4366 194.765 23.9945C195.194 24.5525 195.408 25.3661 195.408 26.4355Z" fill="#1A5331"/>
<path d="M208.037 31.2128C208.037 30.7478 208.144 30.3642 208.359 30.062C208.573 29.7366 208.906 29.4925 209.359 29.3297C209.811 29.1438 210.395 29.0508 211.109 29.0508C211.99 29.0508 212.823 29.167 213.609 29.3995C214.419 29.632 215.145 29.9807 215.788 30.4456V28.3534C215.55 28.0744 215.157 27.7838 214.609 27.4816C214.062 27.1794 213.383 26.9237 212.573 26.7144C211.788 26.5052 210.871 26.4006 209.823 26.4006C207.775 26.4006 206.192 26.8539 205.073 27.7606C203.954 28.6672 203.394 29.8993 203.394 31.4568C203.394 32.5495 203.656 33.4793 204.18 34.2465C204.728 34.9904 205.442 35.56 206.323 35.9552C207.204 36.3504 208.156 36.548 209.18 36.548C210.18 36.548 211.133 36.3736 212.038 36.0249C212.966 35.6762 213.716 35.1531 214.288 34.4557C214.883 33.7583 215.181 32.8982 215.181 31.8753L214.609 29.7831C214.609 30.5502 214.431 31.2128 214.073 31.7707C213.716 32.3054 213.252 32.7238 212.68 33.026C212.109 33.305 211.466 33.4445 210.752 33.4445C210.252 33.4445 209.787 33.3631 209.359 33.2004C208.954 33.0144 208.633 32.7587 208.394 32.4332C208.156 32.0845 208.037 31.6777 208.037 31.2128ZM206.251 24.6919C206.49 24.5292 206.859 24.3316 207.359 24.0991C207.859 23.8667 208.454 23.6691 209.145 23.5063C209.835 23.3436 210.561 23.2622 211.323 23.2622C211.823 23.2622 212.276 23.3087 212.68 23.4017C213.085 23.4947 213.43 23.6458 213.716 23.855C214.026 24.0643 214.252 24.3316 214.395 24.6571C214.538 24.9593 214.609 25.3312 214.609 25.7729V36.1993H219.074V24.8314C219.074 23.7388 218.764 22.8206 218.145 22.0766C217.526 21.3095 216.669 20.7283 215.574 20.3331C214.478 19.9379 213.228 19.7403 211.823 19.7403C210.299 19.7403 208.918 19.9495 207.68 20.368C206.442 20.7632 205.394 21.1816 204.537 21.6233L206.251 24.6919Z" fill="#1A5331"/>
<path d="M222.591 37.3151C222.687 38.7099 223.068 39.942 223.734 41.0114C224.425 42.104 225.413 42.9409 226.699 43.5221C227.984 44.1265 229.58 44.4287 231.485 44.4287C233.056 44.4287 234.509 44.1265 235.842 43.5221C237.176 42.9409 238.235 42.011 239.021 40.7324C239.831 39.4538 240.235 37.8266 240.235 35.8505V20.1588H235.771V35.8505C235.771 36.9432 235.556 37.8498 235.128 38.5705C234.723 39.2911 234.175 39.8258 233.485 40.1745C232.818 40.5232 232.104 40.6976 231.342 40.6976C230.508 40.6976 229.782 40.5581 229.163 40.2791C228.544 40.0002 228.056 39.605 227.699 39.0935C227.342 38.6053 227.151 38.0125 227.127 37.3151H222.591ZM222.27 28.0395C222.27 29.8063 222.639 31.3057 223.377 32.5378C224.115 33.7467 225.091 34.6649 226.306 35.2926C227.52 35.9203 228.806 36.2341 230.163 36.2341C231.544 36.2341 232.759 35.9203 233.806 35.2926C234.878 34.6417 235.711 33.7002 236.306 32.4681C236.926 31.236 237.235 29.7598 237.235 28.0395C237.235 26.296 236.926 24.8198 236.306 23.611C235.711 22.3789 234.878 21.4374 233.806 20.7864C232.759 20.1355 231.544 19.8101 230.163 19.8101C228.806 19.8101 227.52 20.1239 226.306 20.7516C225.091 21.3792 224.115 22.3091 223.377 23.5412C222.639 24.7501 222.27 26.2495 222.27 28.0395ZM227.056 28.0395C227.056 27.0631 227.258 26.2495 227.663 25.5986C228.068 24.9244 228.615 24.413 229.306 24.0643C229.997 23.7156 230.735 23.5412 231.52 23.5412C232.044 23.5412 232.556 23.6458 233.056 23.855C233.556 24.041 234.009 24.32 234.413 24.6919C234.842 25.0639 235.175 25.5288 235.414 26.0868C235.652 26.6447 235.771 27.2956 235.771 28.0395C235.771 29.0159 235.556 29.8412 235.128 30.5153C234.723 31.1663 234.187 31.6661 233.521 32.0148C232.878 32.3402 232.211 32.503 231.52 32.503C230.735 32.503 229.997 32.3286 229.306 31.9799C228.615 31.6312 228.068 31.1314 227.663 30.4805C227.258 29.8063 227.056 28.9927 227.056 28.0395Z" fill="#1A5331"/>
<path d="M252.474 36.548C254.45 36.548 256.141 36.176 257.546 35.4321C258.974 34.6649 260.117 33.5258 260.974 32.0148L256.938 30.7943C256.462 31.5615 255.855 32.1426 255.117 32.5378C254.403 32.9098 253.533 33.0958 252.51 33.0958C251.605 33.0958 250.831 32.8982 250.188 32.503C249.545 32.1078 249.057 31.5382 248.724 30.7943C248.414 30.0504 248.259 29.1438 248.259 28.0744C248.283 26.9585 248.45 26.0287 248.759 25.2847C249.093 24.5176 249.557 23.948 250.152 23.5761C250.771 23.1809 251.533 22.9833 252.438 22.9833C253.176 22.9833 253.819 23.146 254.367 23.4715C254.914 23.7969 255.331 24.2386 255.617 24.7966C255.926 25.3545 256.081 26.0287 256.081 26.8191C256.081 26.9818 256.034 27.191 255.938 27.4467C255.867 27.6792 255.784 27.8652 255.688 28.0047L256.938 26.4006H246.259V29.1903H260.974C260.998 29.0508 261.01 28.8648 261.01 28.6323C261.034 28.3999 261.046 28.179 261.046 27.9698C261.046 26.2495 260.713 24.7849 260.046 23.5761C259.379 22.344 258.403 21.4141 257.117 20.7864C255.855 20.1355 254.319 19.8101 252.51 19.8101C250.7 19.8101 249.128 20.1588 247.795 20.8562C246.462 21.5303 245.426 22.4951 244.688 23.7504C243.973 24.9825 243.616 26.4587 243.616 28.179C243.616 29.876 243.973 31.3522 244.688 32.6076C245.426 33.8397 246.462 34.8044 247.795 35.5018C249.128 36.1993 250.688 36.548 252.474 36.548Z" fill="#1A5331"/>
<path d="M269.071 20.1588H264.535V36.1993H269.071V20.1588ZM273.893 24.8663L276 21.0305C275.667 20.6121 275.226 20.2982 274.678 20.089C274.155 19.8798 273.595 19.7752 273 19.7752C272.143 19.7752 271.309 20.0774 270.5 20.6818C269.69 21.263 269.035 22.0534 268.535 23.053C268.035 24.0294 267.785 25.1569 267.785 26.4355L269.071 27.6908C269.071 26.9237 269.166 26.2727 269.357 25.7381C269.571 25.1801 269.881 24.7501 270.285 24.4478C270.69 24.1456 271.178 23.9945 271.75 23.9945C272.226 23.9945 272.619 24.0759 272.928 24.2386C273.262 24.3781 273.583 24.5873 273.893 24.8663Z" fill="#1A5331"/>
<g clip-path="url(#clip0)">
<path d="M39.1781 0.0666504C31.5092 0.0666504 25.2701 6.30574 25.2701 13.9745V15.4054H26.7011C34.37 15.4054 40.609 9.16632 40.609 1.4976V0.0666504H39.1781Z" fill="#00C063"/>
<path d="M13.9989 4.6106H12.568V6.04154C12.568 13.7104 18.8071 19.9494 26.4758 19.9494H27.9068V18.5185C27.9069 10.8498 21.6678 4.6106 13.9989 4.6106Z" fill="#00C063"/>
<path d="M38.2554 29.6053C35.9945 27.084 32.2106 22.8641 27.4668 22.47C20.185 21.8649 15.4133 26.0656 15.2136 26.2446L16.094 27.226H16.0941L16.9744 28.2073C16.9826 28.2 17.1555 28.0477 17.477 27.8137L22.4993 29.9483L27.2404 32.0962L28.0448 35.9818L37.0766 32.228C37.2166 32.3772 37.3476 32.5122 37.4694 32.6302L39.3043 30.7369C39.0435 30.4843 38.6784 30.0769 38.2554 29.6053Z" fill="#2B7A4B"/>
<path d="M44.6587 32.4416C44.205 31.35 43.3534 30.5005 42.2608 30.0494C41.1681 29.5983 39.9654 29.5997 38.8736 30.0534L29.17 34.0863C29.1792 33.4979 29.0709 32.9072 28.8436 32.3422C28.3822 31.1952 27.4962 30.3107 26.3487 29.8515L17.4037 26.2709C15.423 25.4775 13.2463 25.4917 11.2742 26.3111L6.8342 28.1563L7.34018 29.3738L7.3473 29.8506L7.34018 29.8554L7.41551 37.2504L6.92165 38.4728L21.4337 44.3346C22.425 44.734 23.4646 44.9336 24.5039 44.9336C25.5728 44.9336 26.6412 44.7226 27.6563 44.3007L42.2705 38.2268C43.3621 37.7731 44.2116 36.9216 44.6627 35.8289C45.1138 34.7362 45.1124 33.5333 44.6587 32.4416Z" fill="#F9D5A5"/>
<path d="M7.37702 33.4692L7.41543 33.3739L7.37456 29.3594L7.34019 29.3737L7.34731 29.8506L7.34019 29.8553L7.37702 33.4692Z" fill="#F9BE77"/>
<path d="M8.65872 24.6084H0V42.2993H8.65872V24.6084Z" fill="#2B7A4B"/>
<path d="M8.74661 22.7505H6.10999V43.2863H8.74661V22.7505Z" fill="white"/>
<path d="M35.3409 6.83979L33.4351 5.01782L25.2702 13.5792V15.3444L19.742 9.56186L17.8361 11.3839L25.2702 19.16V23.7272H27.9069V14.6157L35.3409 6.83979Z" fill="#73E6A1"/>
</g>
<defs>
<clipPath id="clip0">
<rect width="45" height="45" fill="white"/>
</clipPath>
</defs>
</svg>
